<?xml version="1.0" encoding="UTF-8"?>
<svg version="1.1" xmlns="http://www.w3.org/2000/svg" width="1908" height="193">
<path d="M0 0 C629.64 0 1259.28 0 1908 0 C1908 63.69 1908 127.38 1908 193 C1278.36 193 648.72 193 0 193 C0 129.31 0 65.62 0 0 Z " fill="#FDFDFD" transform="translate(0,0)"/>
<path d="M0 0 C3.79911118 0.71840092 7.34658827 1.72555405 11 3 C11 3.66 11 4.32 11 5 C11.680625 5.185625 12.36125 5.37125 13.0625 5.5625 C18.43473564 8.19146638 21.98360481 12.22950516 24.9375 17.375 C27.51226081 26.15947807 25.471371 32.70900231 22 41 C22.85980469 40.97679687 23.71960937 40.95359375 24.60546875 40.9296875 C38.13357152 40.72315158 49.60102192 42.4324148 62 48 C62.70898438 48.29648438 63.41796875 48.59296875 64.1484375 48.8984375 C65.8125 49.75 65.8125 49.75 68 52 C68.47352098 55.06458524 68.35449401 57.92771855 68 61 C66.2111241 61.92210098 64.41870729 62.83733282 62.625 63.75 C61.62726562 64.26046875 60.62953125 64.7709375 59.6015625 65.296875 C58.41304687 65.85890625 57.22453125 66.4209375 56 67 C55.26765137 67.34708008 54.53530273 67.69416016 53.78076172 68.05175781 C47.17508247 70.96085078 41.04064743 71.81240321 33.875 72.25 C32.2971875 72.36601562 32.2971875 72.36601562 30.6875 72.484375 C28.12564835 72.67069148 25.56374405 72.84229031 23 73 C23.72509766 74.81371094 23.72509766 74.81371094 24.46484375 76.6640625 C26.74131917 82.769583 27.302513 88.41544186 25.0390625 94.64453125 C21.38111067 101.52697818 15.82656369 106.30829335 9 110 C7.68 110 6.36 110 5 110 C5 110.66 5 111.32 5 112 C3.35 112 1.7 112 0 112 C-0.06316406 111.05640625 -0.12632812 110.1128125 -0.19140625 109.140625 C-1.32603985 97.2448875 -4.69259031 88.4971052 -13.9375 80.375 C-14.70964844 79.76398438 -15.48179687 79.15296875 -16.27734375 78.5234375 C-17.13005859 77.76933594 -17.13005859 77.76933594 -18 77 C-18 76.34 -18 75.68 -18 75 C-21.77669024 73.42168169 -25.57289292 72.15291217 -29.5 71 C-30.6034375 70.67 -31.706875 70.34 -32.84375 70 C-45.53022331 66.75984232 -57.99989519 66.70752699 -71.00080872 66.7215271 C-73.12392838 66.71651829 -75.24704613 66.71064078 -77.37016124 66.70397437 C-83.17840533 66.68823126 -88.98660097 66.68474682 -94.79486382 66.68332577 C-101.06805483 66.67962177 -107.34121957 66.6644613 -113.61439514 66.65071106 C-124.47452968 66.62846581 -135.33465129 66.61336686 -146.19480324 66.60334396 C-157.58007608 66.59280627 -168.96533152 66.5781573 -180.35059166 66.55806351 C-181.41396556 66.55619021 -181.41396556 66.55619021 -182.49882177 66.55427906 C-186.09930841 66.54791497 -189.69979491 66.54147787 -193.30028137 66.53501268 C-218.7770828 66.48939656 -244.25388989 66.452929 -269.73071289 66.421875 C-294.47518746 66.39169265 -319.21965054 66.35734558 -343.96411133 66.31738281 C-344.72735811 66.31615181 -345.4906049 66.31492081 -346.27698038 66.3136525 C-353.94208621 66.30128524 -361.6071919 66.28883355 -369.27229749 66.27632002 C-384.88585116 66.25083231 -400.4994057 66.22590796 -416.11296082 66.20132446 C-417.18969915 66.1996281 -417.18969915 66.1996281 -418.28818978 66.19789747 C-466.19211333 66.12249107 -514.0960554 66.06036753 -562 66 C-562 59.4 -562 52.8 -562 46 C-559.36112132 45.99576806 -556.72224264 45.99153612 -554.00339794 45.98717594 C-507.82101159 45.91300155 -461.63862755 45.83757465 -415.45625305 45.7563324 C-414.73316658 45.75506072 -414.01008011 45.75378904 -413.26508193 45.75247882 C-397.55006479 45.72483379 -381.83504805 45.69697071 -366.1200317 45.66888306 C-358.41327316 45.65511 -350.70651453 45.64138511 -342.99975586 45.62768555 C-342.23284506 45.62632146 -341.46593427 45.62495738 -340.67578375 45.62355196 C-315.82274532 45.57936911 -290.96970287 45.53836686 -266.11665635 45.49901587 C-240.57466736 45.45855724 -215.03268582 45.41488609 -189.49070929 45.36717889 C-185.88220665 45.36044044 -182.27370394 45.35373867 -178.66520119 45.34705925 C-177.95500349 45.34574352 -177.2448058 45.34442779 -176.51308696 45.3430722 C-165.085754 45.32199598 -153.6584182 45.30430133 -142.23107771 45.28787469 C-130.73979115 45.27128384 -119.24851684 45.25104307 -107.75724246 45.22733159 C-101.53223618 45.21459329 -95.30723774 45.20345086 -89.08222198 45.19658089 C-83.381713 45.19025472 -77.68123112 45.17940105 -71.98073707 45.1649667 C-69.91999268 45.16054421 -67.85924394 45.15777443 -65.79849502 45.15683801 C-47.73374174 45.8450415 -47.73374174 45.8450415 -30.5625 41.4375 C-26.86112483 39.69770581 -25.17844848 39 -21 39 C-21 38.34 -21 37.68 -21 37 C-20.195625 36.505 -19.39125 36.01 -18.5625 35.5 C-10.13807186 30.08999994 -3.84744531 21.54731663 -1 12 C-0.38119095 7.99402562 -0.07776794 4.05100281 0 0 Z " fill="#030303" transform="translate(1840,35)"/>
<path d="M0 0 C0.34611328 1.46759766 0.34611328 1.46759766 0.69921875 2.96484375 C4.02710505 16.57544663 9.36675045 28.7051453 21.66015625 36.73828125 C37.02918507 44.59665345 53.42275286 44.29649716 70.23495483 44.2784729 C72.37131194 44.28348264 74.50766715 44.28936041 76.64401972 44.29602563 C82.48420914 44.31175758 88.32435036 44.31525255 94.16455841 44.31667423 C100.47386024 44.3203802 106.78313599 44.33554163 113.09242249 44.34928894 C124.01365386 44.37152804 134.93487239 44.38663066 145.85612106 44.39665604 C157.30476232 44.4071957 168.75338629 44.4218468 180.20201492 44.44193649 C181.27152428 44.44380979 181.27152428 44.44380979 182.36263988 44.44572094 C185.9839377 44.45208508 189.60523538 44.45852216 193.22653301 44.46498732 C218.84697653 44.51059686 244.46742567 44.54706722 270.08789062 44.578125 C294.97103701 44.60830999 319.85417199 44.64265827 344.73730469 44.68261719 C345.50490212 44.68384819 346.27249954 44.68507919 347.0633575 44.6863475 C354.77219391 44.69871482 362.48103018 44.7111665 370.18986635 44.72367998 C385.89233404 44.74916732 401.5948026 44.77409174 417.29727173 44.79867554 C418.38012883 44.8003719 418.38012883 44.8003719 419.48486184 44.80210253 C467.65656145 44.87750202 515.82827947 44.93962918 564 45 C564 51.6 564 58.2 564 65 C561.33405384 65.00331015 558.66810768 65.00662029 555.92137527 65.01003075 C509.28617811 65.06816271 462.65098531 65.12882883 416.01580811 65.20132446 C414.92127038 65.2030249 414.92127038 65.2030249 413.80462078 65.20475969 C397.9476949 65.22940926 382.09076976 65.25450205 366.23384531 65.28005161 C358.45798034 65.29257782 350.68211521 65.30500606 342.90625 65.31738281 C342.13244452 65.31861614 341.35863904 65.31984946 340.56138491 65.32112016 C315.46541245 65.36107326 290.36943642 65.3945528 265.27345041 65.42468691 C239.49107385 65.45567931 213.7087148 65.4931794 187.92635996 65.53890612 C184.28750292 65.54535683 180.64864576 65.55173289 177.00978851 65.55806351 C176.29358626 65.55931181 175.577384 65.56056012 174.83947864 65.56184625 C163.29546382 65.5817747 151.75145094 65.5948121 140.2074241 65.60529328 C128.61094896 65.61596838 117.01450694 65.63401555 105.41805366 65.65916704 C99.13112308 65.6725849 92.84423098 65.68270509 86.55728531 65.68421364 C80.80838844 65.68566361 75.0595844 65.69619495 69.310716 65.71413441 C67.22452658 65.71900816 65.138326 65.72046892 63.05213204 65.71827881 C60.22863983 65.71580003 57.40544719 65.72545394 54.58198929 65.73828697 C53.7614464 65.73463729 52.94090352 65.73098761 52.0954957 65.72722733 C48.20382545 65.75792574 45.3356045 65.9277101 42 68 C40.17369962 68.29704886 38.33861882 68.542414 36.5 68.75 C26.5032551 70.32457887 17.12664374 74.76371006 11 83 C5.17943527 91.62225447 1.65822887 99.60152313 0 110 C-2.875 110.125 -2.875 110.125 -6 110 C-6.99 109.01 -6.99 109.01 -8 108 C-9.03125 107.649375 -10.0625 107.29875 -11.125 106.9375 C-17.2219786 104.43224255 -21.56656716 98.80713931 -24.5 93.0625 C-25.93325122 84.2838363 -24.71785523 78.04593 -21 70 C-21.84425537 70.0314209 -21.84425537 70.0314209 -22.70556641 70.06347656 C-37.91139819 70.55308761 -50.43981769 69.59370209 -64 62 C-64 57.38 -64 52.76 -64 48 C-49.7610523 41.23066421 -36.54299523 39.81785552 -21 40 C-21.28875 39.32195312 -21.5775 38.64390625 -21.875 37.9453125 C-24.6471316 30.99573257 -27.14906689 24.02036118 -24.046875 16.7734375 C-21.59129868 12.62382435 -18.58681128 9.22813015 -15 6 C-14.236875 5.278125 -13.47375 4.55625 -12.6875 3.8125 C-8.85344089 1.2267392 -4.6842088 0 0 0 Z " fill="#020202" transform="translate(64,36)"/>
<path d="M0 0 C1.31338543 0.99273469 2.60633978 2.01321228 3.875 3.0625 C4.555625 3.58457031 5.23625 4.10664062 5.9375 4.64453125 C11.37358196 9.04075662 15.21250001 14.13786766 18.875 20.0625 C19.3390625 20.81015625 19.803125 21.5578125 20.28125 22.328125 C24.98689578 30.76385585 28.3895773 42.36176507 27.875 52.0625 C32.15957434 48.43170267 36.26847729 44.71263343 40.1875 40.6875 C45.10625206 35.72677906 50.35263277 31.3353329 55.875 27.0625 C56.40754395 26.64822754 56.94008789 26.23395508 57.48876953 25.80712891 C75.27643159 12.10392562 93.22011834 6.21106093 115.875 8.0625 C120.00112815 8.74862154 123.89988638 9.77233155 127.875 11.0625 C129.22851562 11.49175781 129.22851562 11.49175781 130.609375 11.9296875 C132.70690102 12.61366338 134.79263403 13.33367191 136.875 14.0625 C136.875 14.7225 136.875 15.3825 136.875 16.0625 C137.679375 16.4028125 137.679375 16.4028125 138.5 16.75 C146.47338862 21.15634634 149.30570272 26.84995759 152.875 35.0625 C153.21917969 35.84109375 153.56335937 36.6196875 153.91796875 37.421875 C157.80473973 47.42164258 156.3224416 56.91593091 152.5 66.7109375 C149.67950415 72.52821018 146.16449689 78.54858382 140.125 81.328125 C139.3825 81.57046875 138.64 81.8128125 137.875 82.0625 C137.875 82.7225 137.875 83.3825 137.875 84.0625 C136.50208132 84.54759793 135.12653297 85.02525513 133.75 85.5 C132.98429687 85.76683594 132.21859375 86.03367187 131.4296875 86.30859375 C122.61203186 88.91074595 111.96038931 89.95196557 103.4375 86.0625 C98.67202472 83.31349029 94.92667619 79.64001429 91.875 75.0625 C91.875 74.4025 91.875 73.7425 91.875 73.0625 C91.215 73.0625 90.555 73.0625 89.875 73.0625 C87.6499914 66.3874742 88.28382414 58.54043964 90.875 52.0625 C93.38342719 48.25661047 95.81317725 46.0963003 99.875 44.0625 C102.8828125 43.734375 102.8828125 43.734375 106 43.8125 C107.55074219 43.83570312 107.55074219 43.83570312 109.1328125 43.859375 C111.875 44.0625 111.875 44.0625 114.875 45.0625 C114.875 45.7225 114.875 46.3825 114.875 47.0625 C115.473125 47.330625 116.07125 47.59875 116.6875 47.875 C118.96264771 49.11008019 120.26313848 50.04428683 121.875 52.0625 C123.25995641 59.10269507 121.72353936 64.52495563 117.96875 70.48046875 C117.42734375 71.26357422 117.42734375 71.26357422 116.875 72.0625 C119.845 72.0625 122.815 72.0625 125.875 72.0625 C125.875 71.4025 125.875 70.7425 125.875 70.0625 C127.23625 69.4746875 127.23625 69.4746875 128.625 68.875 C134.34402823 65.68554195 136.83238747 61.1903376 138.875 55.0625 C139.98919727 47.97459445 138.18786831 41.34720605 134.875 35.0625 C131.08172395 30.4335765 126.40668139 28.09454623 120.875 26.0625 C120.875 25.4025 120.875 24.7425 120.875 24.0625 C116.62385402 24.08563364 112.37528922 24.16339536 108.125 24.25 C106.93777344 24.25580078 105.75054688 24.26160156 104.52734375 24.26757812 C86.07598706 24.72130001 73.8017557 34.8725024 60.875 47.0625 C59.98748047 47.87074219 59.98748047 47.87074219 59.08203125 48.6953125 C54.58563211 52.94606513 50.91542968 57.77161697 47.13964844 62.65136719 C35.27033602 77.91191173 20.48427672 92.54188223 2.875 101.0625 C1.885 101.0625 0.895 101.0625 -0.125 101.0625 C-0.125 101.7225 -0.125 102.3825 -0.125 103.0625 C-23.7041038 112.64838245 -49.84147945 115.23444412 -74.32324219 106.25634766 C-75.94225759 105.56682707 -77.53737699 104.82151429 -79.125 104.0625 C-79.125 103.4025 -79.125 102.7425 -79.125 102.0625 C-79.85332031 101.959375 -80.58164062 101.85625 -81.33203125 101.75 C-93.79205845 98.68291638 -104.80792963 84.8780822 -112.125 75.0625 C-112.65480469 74.37542969 -113.18460938 73.68835938 -113.73046875 72.98046875 C-117.125 68.46393557 -117.125 68.46393557 -117.125 65.0625 C-102.15549818 63.28394533 -102.15549818 63.28394533 -97.33789062 66.11132812 C-93.70719289 69.2726581 -90.9894314 73.22123615 -88.125 77.0625 C-76.60403238 89.03798264 -63.41552313 93.83363919 -46.9765625 94.51586914 C-38.03889273 94.68415531 -31.01112381 93.58189946 -23.125 89.0625 C-21.71154297 88.26585937 -21.71154297 88.26585937 -20.26953125 87.453125 C-10.03559121 81.2986452 -0.1041549 73.83195291 3.6875 62.125 C6.10726742 52.15720807 5.91453446 40.8565555 2.875 31.0625 C2.215 30.4025 1.555 29.7425 0.875 29.0625 C0.483125 28.010625 0.09125 26.95875 -0.3125 25.875 C-3.88828989 17.38470085 -11.92205713 12.53970765 -20.125 9.0625 C-31.00746196 6.61283257 -44.16036174 6.60242424 -54.125 12.0625 C-59.05380987 16.2896691 -62.72637792 20.96876934 -63.56640625 27.48828125 C-63.95412977 34.73963544 -63.95412977 34.73963544 -61.8046875 41.53125 C-58.10650787 45.44501858 -54.36119286 47.10075029 -49.125 48.0625 C-49.20621094 47.27746094 -49.28742188 46.49242187 -49.37109375 45.68359375 C-49.95235563 36.01566662 -49.95235563 36.01566662 -46.3125 31.8125 C-42.26306693 28.37131511 -38.41440216 28.47813835 -33.28515625 28.81640625 C-32.57230469 28.89761719 -31.85945313 28.97882813 -31.125 29.0625 C-31.125 29.7225 -31.125 30.3825 -31.125 31.0625 C-30.568125 31.124375 -30.01125 31.18625 -29.4375 31.25 C-25.82024389 32.52092782 -24.37796664 33.93337967 -22.125 37.0625 C-21.12343659 41.80323346 -21.16120618 46.08385043 -23.3046875 50.484375 C-25.99579001 54.30490395 -28.41669829 56.9546643 -33.125 58.0625 C-33.125 58.7225 -33.125 59.3825 -33.125 60.0625 C-41.79324336 64.22325681 -51.28797758 64.3163088 -60.5625 61.9375 C-69.14429852 58.89460739 -74.8746771 51.93880459 -79.125 44.0625 C-81.79725184 32.61661205 -80.95948628 20.94814622 -74.76953125 10.8515625 C-73.31457748 8.81540736 -71.7815789 6.93757252 -70.125 5.0625 C-69.57714844 4.4334375 -69.02929688 3.804375 -68.46484375 3.15625 C-51.60373453 -14.97232301 -19.51029322 -12.3731945 0 0 Z " fill="#070707" transform="translate(1081.125,40.9375)"/>
<path d="M0 0 C3.96389103 3.2237454 6.91442757 6.87303855 9.625 11.1875 C10.04007813 11.81914063 10.45515625 12.45078125 10.8828125 13.1015625 C15.79943591 22.00649581 14.7034865 34.21330114 12.125 43.75 C11.64784439 45.23669316 11.15757543 46.71974749 10.625 48.1875 C9.965 48.1875 9.305 48.1875 8.625 48.1875 C8.36203125 48.78433594 8.0990625 49.38117188 7.828125 49.99609375 C4.52095387 56.01986974 -2.22364701 59.91903103 -8.625 61.875 C-14.83925483 62.58116532 -20.64345026 62.9758215 -26.375 60.1875 C-28.045625 59.81625 -28.045625 59.81625 -29.75 59.4375 C-35.36752704 57.50042171 -38.80956544 54.24213287 -42.375 49.5625 C-43.93864228 44.28520731 -43.77678189 39.50410283 -42.375 34.1875 C-40.53048256 31.16002457 -38.6177528 29.59739252 -35.375 28.1875 C-30.82929495 27.12486765 -27.13900742 27.2332009 -22.9921875 29.4765625 C-17.8653169 33.2068662 -17.8653169 33.2068662 -16.375 36.1875 C-16.30503986 37.89452735 -16.29059846 39.60418003 -16.3125 41.3125 C-16.32152344 42.22257812 -16.33054687 43.13265625 -16.33984375 44.0703125 C-16.35724609 45.11832031 -16.35724609 45.11832031 -16.375 46.1875 C-8.86411186 44.32652211 -8.86411186 44.32652211 -3.1953125 39.3125 C-0.90358961 33.37584641 -1.18026935 26.39979136 -3.37890625 20.48828125 C-6.96602987 14.46886298 -12.16758787 11.18791316 -18.375 8.1875 C-19.13425781 7.81238281 -19.89351562 7.43726562 -20.67578125 7.05078125 C-29.32341954 4.28503876 -40.69942073 5.30898338 -48.9453125 8.85546875 C-59.98991646 14.91046867 -65.26578185 21.95451269 -69.359375 33.65234375 C-72.85871935 45.83275389 -72.06535425 56.67767956 -65.90234375 67.859375 C-57.35508532 80.87222235 -44.60560067 89.89807442 -29.375 93.1875 C-25.34303881 93.58345389 -21.361085 93.60853571 -17.3125 93.5625 C-16.28833984 93.57410156 -15.26417969 93.58570313 -14.20898438 93.59765625 C-7.62598747 93.57241792 0.15496924 93.46263281 5.22460938 88.67773438 C5.68673828 88.18595703 6.14886719 87.69417969 6.625 87.1875 C8.29360042 86.11581986 9.98376118 85.07738902 11.6875 84.0625 C18.88778713 79.54803426 25.67134762 74.44911272 30.125 67.125 C32.71293411 64.51669166 34.33347862 63.80879129 37.9921875 63.7578125 C38.80751953 63.74371338 39.62285156 63.72961426 40.46289062 63.71508789 C44.19512986 63.76644569 47.90029069 63.94152863 51.625 64.1875 C51.625 65.1775 51.625 66.1675 51.625 67.1875 C50.965 67.1875 50.305 67.1875 49.625 67.1875 C49.39554688 67.87457031 49.16609375 68.56164062 48.9296875 69.26953125 C47.32624691 72.85566935 45.16269989 75.80662931 42.75 78.875 C42.26966309 79.48641846 41.78932617 80.09783691 41.29443359 80.7277832 C35.28930163 88.13294997 28.04749962 94.62893062 19.625 99.1875 C18.965 99.1875 18.305 99.1875 17.625 99.1875 C17.625 99.8475 17.625 100.5075 17.625 101.1875 C16.48160156 101.60902344 15.33820313 102.03054687 14.16015625 102.46484375 C12.66921741 103.01808521 11.17833489 103.57147847 9.6875 104.125 C8.93275391 104.40279297 8.17800781 104.68058594 7.40039062 104.96679688 C3.73720861 106.10503451 3.73720861 106.10503451 0.625 108.1875 C-7.86280237 110.25385468 -16.3476955 110.47512861 -25.04272461 110.39331055 C-27.09826666 110.37467575 -29.15336541 110.37280415 -31.20898438 110.37304688 C-41.23432037 110.32817963 -41.23432037 110.32817963 -42.375 109.1875 C-43.95379955 108.91030619 -45.53853067 108.66675857 -47.125 108.4375 C-53.91000046 107.2784329 -60.04353695 104.82477078 -66.375 102.1875 C-66.375 101.5275 -66.375 100.8675 -66.375 100.1875 C-67.45974609 100.02701172 -67.45974609 100.02701172 -68.56640625 99.86328125 C-85.07871319 95.8902227 -101.67386907 75.91285396 -111.77734375 63.296875 C-119.75211311 53.56733674 -128.70539893 43.7516013 -138.5625 35.9375 C-139.42230469 35.25171875 -140.28210938 34.5659375 -141.16796875 33.859375 C-143.25932074 32.16883846 -143.25932074 32.16883846 -145.375 31.1875 C-145.375 30.5275 -145.375 29.8675 -145.375 29.1875 C-147.39322917 28.73177083 -149.41145833 28.27604167 -151.4296875 27.8203125 C-153.375 27.1875 -153.375 27.1875 -155.375 25.1875 C-162.48895538 23.84092987 -169.65897142 24.07345694 -176.875 24.125 C-178.07898438 24.12951172 -179.28296875 24.13402344 -180.5234375 24.13867188 C-183.47401073 24.1503805 -186.42447859 24.16678005 -189.375 24.1875 C-189.375 24.8475 -189.375 25.5075 -189.375 26.1875 C-190.055625 26.373125 -190.73625 26.55875 -191.4375 26.75 C-196.85965866 29.40339679 -201.84545504 34.19728831 -203.9375 39.9765625 C-205.42170195 47.47708305 -205.75362408 55.89639292 -201.62109375 62.57421875 C-196.93631448 68.63946589 -193.01226014 69.84421819 -185.5703125 70.92578125 C-184.84585938 71.01214844 -184.12140625 71.09851563 -183.375 71.1875 C-185.06307908 66.95665097 -185.06307908 66.95665097 -188.375 64.1875 C-189.40753149 52.54283933 -189.40753149 52.54283933 -185.625 48 C-181.68331514 43.90900889 -177.48010395 43.99635428 -172 43.875 C-166.57053934 43.929659 -163.44284386 44.32304834 -159.375 48.1875 C-158.42625 48.950625 -157.4775 49.71375 -156.5 50.5 C-153.09883304 54.75694445 -153.86469732 60.47118021 -153.90625 65.62890625 C-154.39517582 69.34066812 -155.21577679 71.18336336 -157.375 74.1875 C-157.75398437 74.78433594 -158.13296875 75.38117188 -158.5234375 75.99609375 C-163.35513255 82.41270787 -170.54581203 86.25176553 -178.45556641 87.52148438 C-190.1434676 88.67466947 -199.42625255 86.40568639 -208.6875 78.9375 C-212.69086127 75.16383979 -215.62648181 70.93104852 -218.375 66.1875 C-218.99375 65.15625 -219.6125 64.125 -220.25 63.0625 C-224.20192516 52.70655154 -221.37555141 39.91683264 -217.25683594 30.01074219 C-214.83264378 24.99859739 -211.29029141 21.07602019 -207.375 17.1875 C-206.81683594 16.57261719 -206.25867188 15.95773438 -205.68359375 15.32421875 C-196.41887509 6.66138437 -179.22619315 6.5982439 -167.30249023 6.79174805 C-148.77132341 7.47267852 -133.23323787 17.51652618 -119.375 29.1875 C-118.79621094 29.67154297 -118.21742188 30.15558594 -117.62109375 30.65429688 C-110.69716965 36.46411224 -103.92106067 42.42746081 -97.265625 48.54296875 C-95.46735265 50.24531652 -95.46735265 50.24531652 -93.375 51.1875 C-93.41367187 50.04023437 -93.45234375 48.89296875 -93.4921875 47.7109375 C-93.49019818 43.19717354 -92.64971876 39.1586 -91.5 34.8125 C-91.32597656 34.10222656 -91.15195312 33.39195313 -90.97265625 32.66015625 C-89.6381537 27.4506537 -89.6381537 27.4506537 -87.375 25.1875 C-86.9625 24.15625 -86.55 23.125 -86.125 22.0625 C-80.79627156 9.29465562 -69.00237828 -0.66940755 -56.54296875 -6.03125 C-38.22278478 -13.04855713 -16.27766235 -11.40057649 0 0 Z " fill="#060606" transform="translate(888.375,41.8125)"/>
<path d="M0 0 C1.21623047 0.81210937 1.21623047 0.81210937 2.45703125 1.640625 C3.09253906 2.05828125 3.72804688 2.4759375 4.3828125 2.90625 C8.1702122 5.72565424 11.06768089 9.12523632 12.45703125 13.640625 C13.21459361 19.1851978 13.81162479 24.8864348 11.28125 30.03125 C8.56337218 33.37416949 5.7188987 35.63123534 1.45703125 36.640625 C0.13703125 36.640625 -1.18296875 36.640625 -2.54296875 36.640625 C-2.55714844 35.97675781 -2.57132813 35.31289062 -2.5859375 34.62890625 C-2.89726619 28.67834261 -2.89726619 28.67834261 -5.91796875 23.640625 C-10.6482036 20.03663654 -13.16721993 19.10524017 -19.02734375 19.28515625 C-22.03951497 19.71078914 -24.29200763 20.5748397 -26.47265625 22.76171875 C-28.92753941 27.07120343 -29.02602219 31.80381715 -28.54296875 36.640625 C-26.64549037 41.76961679 -23.21891833 45.81330665 -18.54296875 48.640625 C-15.88733413 49.50148887 -13.28590258 50.06549371 -10.54296875 50.640625 C-9.55296875 50.970625 -8.56296875 51.300625 -7.54296875 51.640625 C2.38990601 52.57295259 9.87845401 50.2969346 17.73046875 44.23828125 C19.5577313 42.64991366 19.5577313 42.64991366 21.05859375 40.44921875 C21.52007813 39.85238281 21.9815625 39.25554687 22.45703125 38.640625 C23.11703125 38.640625 23.77703125 38.640625 24.45703125 38.640625 C26.00826591 30.98987542 26.9405439 23.42871063 27.45703125 15.640625 C27.78703125 15.640625 28.11703125 15.640625 28.45703125 15.640625 C28.51132098 17.86951996 28.54995463 20.09879971 28.58203125 22.328125 C28.60523438 23.56949219 28.6284375 24.81085938 28.65234375 26.08984375 C28.46735146 29.45300357 27.9147102 31.6391837 26.45703125 34.640625 C27.92365456 33.66712852 27.92365456 33.66712852 29.41990662 32.67396545 C33.67019956 30.25969414 37.24050124 30.06638497 42.05102539 30.10717773 C42.88121689 30.09856216 43.71140839 30.08994659 44.5667572 30.08106995 C47.29222393 30.05849338 50.01665572 30.06513203 52.7421875 30.07421875 C54.64595341 30.06898032 56.54971671 30.06270304 58.45347595 30.05543518 C62.43533581 30.04504699 66.41683792 30.04957099 70.39868164 30.06420898 C75.49550652 30.08141457 80.59120593 30.05787141 85.68790531 30.02271938 C89.61624081 30.00073933 93.54430707 30.00218799 97.47268486 30.0104847 C99.35172194 30.01130349 101.23077893 30.00445379 103.10975838 29.98971367 C105.73801702 29.97225144 108.36425358 29.98682167 110.99243164 30.00952148 C111.76402618 29.99782928 112.53562073 29.98613708 113.33059692 29.97409058 C119.15824214 30.07626292 121.52906793 31.6318942 125.45703125 35.640625 C126.91590514 38.55837279 126.82526358 40.38790605 126.45703125 43.640625 C124.36440402 47.52693271 122.13568889 50.18818658 118.45703125 52.640625 C116.12214661 52.9190979 116.12214661 52.9190979 113.34301758 52.95947266 C111.78173882 52.98927719 111.78173882 52.98927719 110.18891907 53.01968384 C109.0669664 53.03123505 107.94501373 53.04278625 106.7890625 53.0546875 C105.63911301 53.07405365 104.48916351 53.0934198 103.30436707 53.1133728 C99.62616426 53.17322261 95.94793025 53.21957606 92.26953125 53.265625 C89.77798103 53.30379976 87.28644408 53.34285119 84.79492188 53.3828125 C78.68240931 53.47892862 72.56981704 53.56396038 66.45703125 53.640625 C66.12703125 54.630625 65.79703125 55.620625 65.45703125 56.640625 C65.45703125 55.980625 65.45703125 55.320625 65.45703125 54.640625 C55.16278036 53.70542994 55.16278036 53.70542994 45.63623047 56.81884766 C42.88533817 59.35676764 40.65192068 62.25235414 38.34375 65.1875 C35.48806599 68.79866124 32.26413719 71.33725407 28.45703125 73.890625 C27.40515625 74.59703125 26.35328125 75.3034375 25.26953125 76.03125 C22.45703125 77.640625 22.45703125 77.640625 20.14453125 78.1875 C19.58765625 78.33703125 19.03078125 78.4865625 18.45703125 78.640625 C17.96203125 80.125625 17.96203125 80.125625 17.45703125 81.640625 C11.11803161 85.22581997 3.71595776 85.14838204 -3.35546875 85.078125 C-4.9499585 85.06676514 -4.9499585 85.06676514 -6.57666016 85.05517578 C-14.16016537 84.89570683 -20.70620911 84.13521074 -27.54296875 80.640625 C-28.39375 80.21652344 -29.24453125 79.79242188 -30.12109375 79.35546875 C-43.37277108 72.05891636 -53.57943075 61.11526685 -57.88671875 46.50390625 C-60.23811334 36.24454771 -58.00493246 23.64057615 -52.8203125 14.50390625 C-40.93535837 -2.83286169 -19.0491475 -11.15326283 0 0 Z " fill="#F7F7F7" transform="translate(874.54296875,51.359375)"/>
<path d="M0 0 C5.541558 1.88017146 9.62379215 5.31311801 12.3125 10.5625 C13 13 13 13 13 17 C13.67546875 16.51789062 14.3509375 16.03578125 15.046875 15.5390625 C15.93890625 14.90742188 16.8309375 14.27578125 17.75 13.625 C18.63171875 12.99851562 19.5134375 12.37203125 20.421875 11.7265625 C21.27265625 11.15679687 22.1234375 10.58703125 23 10 C23.5878125 9.5978125 24.175625 9.195625 24.78125 8.78125 C28.37466051 7.51596461 31.97470513 7.7936089 35.75 7.875 C36.93916016 7.88853516 36.93916016 7.88853516 38.15234375 7.90234375 C40.10169281 7.92582988 42.05088575 7.96169863 44 8 C44 8.66 44 9.32 44 10 C45.3303125 10.37125 45.3303125 10.37125 46.6875 10.75 C51.42650192 12.53830261 54.19956335 14.79934503 57 19 C57 20.32 57 21.64 57 23 C55.97261719 23.3403125 54.94523438 23.680625 53.88671875 24.03125 C34.08152611 30.84085905 20.72392221 44.6720459 7.8359375 60.74609375 C2.3325409 67.50239127 2.3325409 67.50239127 -2.34375 68.5 C-6.81771591 68.82341922 -10.07433231 68.47690929 -13.625 65.625 C-17.05092576 62.21512073 -20.00077615 58.38672228 -22.97265625 54.58203125 C-34.15841004 40.33582073 -48.75559039 27.50994654 -67 24 C-67 18.20460332 -64.16093341 15.60202261 -60.30078125 11.734375 C-54.98732216 7.72898309 -49.04985496 7.40594978 -42.6015625 7.47265625 C-34.96398494 8.59095665 -28.35191388 12.76539075 -22 17 C-21.98582031 16.41992188 -21.97164062 15.83984375 -21.95703125 15.2421875 C-21.58336611 9.12215853 -20.39479412 6.29015616 -16 2 C-11.12003512 -1.25330992 -5.70872971 -0.45050395 0 0 Z " fill="#040404" transform="translate(956,8)"/>
<path d="M0 0 C5.68553258 1.35909145 9.11333829 5.50501047 12.94140625 9.703125 C14.00875 10.85167969 14.00875 10.85167969 15.09765625 12.0234375 C17.08594015 14.21819703 19.0208128 16.44903938 20.94140625 18.703125 C23.25289704 21.3898578 25.58033938 24.05981565 27.94140625 26.703125 C28.47121094 27.29996094 29.00101563 27.89679688 29.546875 28.51171875 C38.05317601 37.5837595 48.32386248 42.02282281 59.94140625 45.703125 C58.87908371 51.20788728 55.55742586 54.89770302 51 58.04296875 C44.13491339 61.59561947 35.90105319 62.26346336 28.5078125 59.9375 C24.60721443 58.07937011 21.0963174 55.6608542 17.94140625 52.703125 C17.94140625 52.043125 17.94140625 51.383125 17.94140625 50.703125 C17.28140625 50.703125 16.62140625 50.703125 15.94140625 50.703125 C15.90015625 51.693125 15.85890625 52.683125 15.81640625 53.703125 C15.08451287 58.70439645 12.43244267 62.16437509 8.94140625 65.703125 C3.52734278 69.34933101 -1.60969449 69.13618768 -8.01953125 68.48046875 C-12.00998117 67.45977526 -13.68643652 65.90301505 -16.0078125 62.58984375 C-16.35457031 61.96722656 -16.70132813 61.34460938 -17.05859375 60.703125 C-17.43371094 60.03410156 -17.80882812 59.36507812 -18.1953125 58.67578125 C-19.37667724 55.97628264 -19.19083972 53.61253641 -19.05859375 50.703125 C-19.52007813 51.08984375 -19.9815625 51.4765625 -20.45703125 51.875 C-27.34084666 57.37116883 -34.71621261 61.51671333 -43.76171875 61.01953125 C-49.53911373 60.22366561 -55.11868744 59.38395784 -58.99609375 54.703125 C-59.67671875 53.713125 -60.35734375 52.723125 -61.05859375 51.703125 C-61.65671875 51.166875 -62.25484375 50.630625 -62.87109375 50.078125 C-64.05859375 48.703125 -64.05859375 48.703125 -64.05859375 44.703125 C-63.17558594 44.42339844 -62.29257812 44.14367187 -61.3828125 43.85546875 C-41.40205394 37.18090816 -28.7889887 23.87266654 -15.18359375 8.265625 C-14.62414062 7.63785156 -14.0646875 7.01007813 -13.48828125 6.36328125 C-11.93610336 4.61687643 -11.93610336 4.61687643 -10.30859375 2.203125 C-6.93739534 -0.0443406 -4.00226029 -0.14921876 0 0 Z " fill="#030303" transform="translate(953.05859375,114.296875)"/>
<path d="M0 0 C1.24419205 -0.01226624 1.24419205 -0.01226624 2.51351929 -0.02478027 C5.26584142 -0.04964635 8.01811189 -0.06615423 10.77050781 -0.08056641 C12.17972378 -0.08855192 12.17972378 -0.08855192 13.61740875 -0.09669876 C18.59095952 -0.12343687 23.56448514 -0.1428088 28.53808594 -0.15722656 C33.67416776 -0.17386723 38.80960701 -0.21863821 43.94544601 -0.26959801 C47.89516939 -0.3032653 51.84474024 -0.31480348 55.79459381 -0.32045364 C57.68762365 -0.3271686 59.58064336 -0.34239703 61.47353363 -0.36634445 C64.12611605 -0.39798541 66.77696569 -0.39803457 69.4296875 -0.390625 C70.20913727 -0.40703033 70.98858704 -0.42343567 71.79165649 -0.44033813 C75.82441742 -0.39431948 78.25906678 0.03004384 81.44512939 2.6043396 C84.11824938 5.34092093 84.83265357 6.18251983 85.34863281 9.88037109 C84.85048247 14.28069908 82.91811797 16.95393742 79.97363281 20.19287109 C76.81117484 21.77410008 73.40553314 21.36698752 69.93139648 21.38574219 C68.684795 21.39800842 68.684795 21.39800842 67.41300964 21.41052246 C64.65588099 21.43538577 61.89880384 21.45189454 59.14160156 21.46630859 C58.2008761 21.47163227 57.26015064 21.47695595 56.29091835 21.48244095 C51.31203653 21.50917617 46.33317983 21.52855017 41.35424805 21.54296875 C36.20910073 21.5596207 31.06459345 21.60440192 25.91968822 21.65534019 C21.9657161 21.68897972 18.01189653 21.70054254 14.05779457 21.70619583 C12.16114725 21.71291707 10.26451027 21.72816175 8.36800194 21.75208664 C5.71282005 21.783672 3.05937282 21.78378531 0.40405273 21.77636719 C-0.37899231 21.79277252 -1.16203735 21.80917786 -1.96881104 21.82608032 C-6.02530221 21.77970342 -7.80133802 21.37592687 -10.99076843 18.78140259 C-13.85820435 15.13508075 -14.36196293 12.9209023 -14.31933594 8.23193359 C-13.86381752 5.06152542 -12.27321062 3.37363089 -10.02636719 1.19287109 C-6.8678031 -0.38641095 -3.46976223 0.01876842 0 0 Z " fill="#070707" transform="translate(916.0263671875,81.80712890625)"/>
<path d="M0 0 C6.17044288 -0.40288115 10.22015749 1.18673011 14.8984375 5.2265625 C18.78756233 10.49569937 19.7060059 15.77551612 18.8984375 22.2265625 C15.46685345 34.53004679 6.54041398 46.12512886 -4.1015625 53.2265625 C-5.4215625 53.2265625 -6.7415625 53.2265625 -8.1015625 53.2265625 C-14.96528595 40.18548794 -18.58219513 27.10600642 -17.1015625 12.2265625 C-15.56663839 7.33139914 -12.43856011 3.91137054 -8.1015625 1.2265625 C-5.37735973 0.48359811 -2.79465099 0.30128208 0 0 Z " fill="#050505" transform="translate(1122.1015625,23.7734375)"/>
<path d="M0 0 C4.63082464 2.65591413 7.84566481 4.86055147 10.09375 9.8359375 C11.80649789 24.86446065 8.50551273 38.73942471 1.09375 51.8359375 C-4.04084663 51.48346983 -6.78074012 48.65186084 -10.21875 45.1484375 C-10.7869043 44.57697998 -11.35505859 44.00552246 -11.94042969 43.41674805 C-17.55080033 37.54593005 -21.30601847 31.0869656 -24.90625 23.8359375 C-25.23625 23.1759375 -25.56625 22.5159375 -25.90625 21.8359375 C-26.43762136 15.76841805 -26.4647106 9.08349637 -22.54296875 4.10546875 C-16.52022494 -2.18628099 -8.1388297 -3.2599076 0 0 Z " fill="#060606" transform="translate(787.90625,25.1640625)"/>
<path d="M0 0 C5.94 0 11.88 0 18 0 C18 6.93 18 13.86 18 21 C12.06 21 6.12 21 0 21 C0 14.07 0 7.14 0 0 Z " fill="#131313" transform="translate(637,80)"/>
<path d="M0 0 C5.94 0 11.88 0 18 0 C18 6.6 18 13.2 18 20 C12.06 20 6.12 20 0 20 C0 13.4 0 6.8 0 0 Z " fill="#0E0E0E" transform="translate(1250,81)"/>
<path d="M0 0 C0.99386719 0.02707031 1.98773437 0.05414063 3.01171875 0.08203125 C4.15060547 0.13423828 4.15060547 0.13423828 5.3125 0.1875 C5.3125 0.5175 5.3125 0.8475 5.3125 1.1875 C2.0125 1.1875 -1.2875 1.1875 -4.6875 1.1875 C-5.3475 2.5075 -6.0075 3.8275 -6.6875 5.1875 C-8.18127563 6.81609293 -9.72738064 8.39766976 -11.3125 9.9375 C-12.53839844 11.13632813 -12.53839844 11.13632813 -13.7890625 12.359375 C-14.41554688 12.96265625 -15.04203125 13.5659375 -15.6875 14.1875 C-16.3475 13.8575 -17.0075 13.5275 -17.6875 13.1875 C-16.25104149 11.58240066 -14.81329294 9.97845576 -13.375 8.375 C-12.57449219 7.48167969 -11.77398438 6.58835937 -10.94921875 5.66796875 C-9.82966797 4.44013672 -9.82966797 4.44013672 -8.6875 3.1875 C-7.9759375 2.2903125 -7.9759375 2.2903125 -7.25 1.375 C-4.88581005 -0.42178436 -2.91300118 -0.10281181 0 0 Z " fill="#313131" transform="translate(950.6875,114.8125)"/>
<path d="M0 0 C-0.33 0.99 -0.66 1.98 -1 3 C-1 2.34 -1 1.68 -1 1 C-10.01835312 0.71054201 -10.01835312 0.71054201 -18.33203125 3.40234375 C-20.13217485 5.17750555 -20.13217485 5.17750555 -22 8 C-22.66 7.67 -23.32 7.34 -24 7 C-18.74850113 -2.80279789 -9.81225746 -0.64797927 0 0 Z " fill="#5C5C5C" transform="translate(940,106)"/>
<path d="M0 0 C0.66 0.33 1.32 0.66 2 1 C-2.62 5.62 -7.24 10.24 -12 15 C-12 11.11566834 -10.82920314 10.32394504 -8.25 7.5 C-7.55390625 6.7265625 -6.8578125 5.953125 -6.140625 5.15625 C-4.19891408 3.20036601 -2.25069252 1.58156772 0 0 Z " fill="#C7C7C7" transform="translate(835,52)"/>
<path d="M0 0 C0.66 0.33 1.32 0.66 2 1 C-2.29 5.29 -6.58 9.58 -11 14 C-11 9.40845608 -8.09282279 7.18698368 -5 4 C-3.3719908 2.61973133 -1.71956118 1.26438322 0 0 Z " fill="#373737" transform="translate(686,55)"/>
<path d="M0 0 C-1.08192031 2.52448073 -1.84133276 3.87979755 -4.0625 5.5625 C-7.19079594 9.49809811 -6.83123336 14.10576758 -7 19 C-7.33 19 -7.66 19 -8 19 C-8.91331924 8.69978858 -8.91331924 8.69978858 -6.734375 4.64453125 C-2.78891753 0 -2.78891753 0 0 0 Z " fill="#646464" transform="translate(708,87)"/>
<path d="M0 0 C-1.55603771 3.81936528 -3.95604931 6.26044438 -7 9 C-7.66 9 -8.32 9 -9 9 C-7.45665977 5.21180126 -4.44676575 0 0 0 Z " fill="#C9C9C9" transform="translate(1029,52)"/>
<path d="M0 0 C0.5775 0.226875 1.155 0.45375 1.75 0.6875 C0.6053125 1.3371875 0.6053125 1.3371875 -0.5625 2 C-3.21286253 3.52502358 -3.21286253 3.52502358 -4.9375 5.375 C-5.370625 5.808125 -5.80375 6.24125 -6.25 6.6875 C-6.91 6.6875 -7.57 6.6875 -8.25 6.6875 C-6.65594781 2.8352072 -4.57967475 -0.63606594 0 0 Z " fill="#464646" transform="translate(945.25,8.3125)"/>
<path d="M0 0 C-1.28519565 2.86697492 -2.57129254 4.97607712 -5 7 C-5.66 7 -6.32 7 -7 7 C-3.86206897 0 -3.86206897 0 0 0 Z " fill="#353535" transform="translate(853,71)"/>
<path d="M0 0 C0.99 0.33 1.98 0.66 3 1 C1.02 2.98 -0.96 4.96 -3 7 C-3.66 6.67 -4.32 6.34 -5 6 C-3.35 4.02 -1.7 2.04 0 0 Z " fill="#323232" transform="translate(921,107)"/>
<path d="M0 0 C0.66 0.33 1.32 0.66 2 1 C1.0479279 2.00596297 0.08812654 3.00461563 -0.875 4 C-1.40867187 4.556875 -1.94234375 5.11375 -2.4921875 5.6875 C-4 7 -4 7 -6 7 C-4.60667426 3.63279613 -3.0210714 2.0140476 0 0 Z " fill="#434343" transform="translate(1114,25)"/>
<path d="M0 0 C0.99 0.33 1.98 0.66 3 1 C2.67 3.97 2.34 6.94 2 10 C1.67 10 1.34 10 1 10 C0.855625 9.21625 0.71125 8.4325 0.5625 7.625 C0.12201075 5.03578982 0.12201075 5.03578982 -1 3 C-0.67 2.01 -0.34 1.02 0 0 Z " fill="#D3D3D3" transform="translate(900,85)"/>
</svg>
